<svg width="24" height="24" viewBox="0 0 24 24" fill="none" xmlns="http://www.w3.org/2000/svg">
<path fill-rule="evenodd" clip-rule="evenodd" d="M17.0192 9.90993L13.352 14.643L10.1538 12.1308L7.35289 15.7711L6.16406 14.8564L9.8889 10.0152L13.0911 12.5306L15.8335 8.99121L17.0192 9.90993Z" fill="#666666"/>
<path fill-rule="evenodd" clip-rule="evenodd" d="M19.1689 3.75C18.5881 3.75 18.1172 4.22087 18.1172 4.80171C18.1172 5.38256 18.5881 5.85343 19.1689 5.85343C19.7497 5.85343 20.2206 5.38256 20.2206 4.80171C20.2206 4.22087 19.7497 3.75 19.1689 3.75ZM16.6172 4.80171C16.6172 3.39244 17.7596 2.25 19.1689 2.25C20.5782 2.25 21.7206 3.39244 21.7206 4.80171C21.7206 6.21099 20.5782 7.35343 19.1689 7.35343C17.7596 7.35343 16.6172 6.21099 16.6172 4.80171Z" fill="#666666"/>
<path fill-rule="evenodd" clip-rule="evenodd" d="M2.28125 3.03906H15.1664V4.53906H3.78125V20.2497H19.4919V8.83886H20.9919V21.7497H2.28125V3.03906Z" fill="#666666"/>
</svg>
