<svg width="26" height="26" viewBox="0 0 26 26" fill="none" xmlns="http://www.w3.org/2000/svg">
<path fill-rule="evenodd" clip-rule="evenodd" d="M7.83399 7.06044C7.84629 4.21184 10.1654 1.91447 13.013 1.92582C15.86 1.92677 18.1678 4.23547 18.1678 7.08352V11.3878H16.5428V7.08352C16.5428 5.13206 14.9613 3.55082 13.0113 3.55082H13.0078C11.0566 3.5424 9.4683 5.11563 9.45898 7.06579V11.3878H7.83398L7.83399 7.06044Z" fill="#00A8E0"/>
<path fill-rule="evenodd" clip-rule="evenodd" d="M12.9993 24.0742C7.01626 24.0742 2.16602 19.224 2.16602 13.2409L2.16602 7.07949L23.8327 7.07949L23.8327 13.2409C23.8327 19.224 18.9824 24.0742 12.9993 24.0742ZM3.79102 13.2409C3.79102 18.3265 7.91373 22.4492 12.9993 22.4492C18.085 22.4492 22.2077 18.3265 22.2077 13.2409L22.2077 8.70449L3.79102 8.70449L3.79102 13.2409Z" fill="#00A8E0"/>
</svg>
