<svg width="26" height="26" viewBox="0 0 26 26" fill="none" xmlns="http://www.w3.org/2000/svg">
<path fill-rule="evenodd" clip-rule="evenodd" d="M7.83302 7.06065C7.84532 4.21206 10.1645 1.91468 13.012 1.92604C15.859 1.92699 18.1668 4.23568 18.1668 7.08374V11.3881H16.5418V7.08374C16.5418 5.13228 14.9603 3.55104 13.0103 3.55104H13.0068C11.0556 3.54261 9.46733 5.11584 9.45801 7.06601V11.3881H7.83301L7.83302 7.06065Z" fill="#CCCCCC"/>
<path fill-rule="evenodd" clip-rule="evenodd" d="M12.9998 24.0739C7.01675 24.0739 2.1665 19.2237 2.1665 13.2406L2.1665 7.07922L23.8332 7.07922L23.8332 13.2406C23.8332 19.2237 18.9829 24.0739 12.9998 24.0739ZM3.7915 13.2406C3.7915 18.3262 7.91421 22.4489 12.9998 22.4489C18.0855 22.4489 22.2082 18.3262 22.2082 13.2406L22.2082 8.70422L3.7915 8.70422L3.7915 13.2406Z" fill="#CCCCCC"/>
</svg>
