<svg width="32" height="32" viewBox="0 0 32 32" fill="none" xmlns="http://www.w3.org/2000/svg">
<path fill-rule="evenodd" clip-rule="evenodd" d="M6.58869 11.9171C6.58869 6.80822 10.7302 2.66669 15.8391 2.66669C20.9479 2.66669 25.0894 6.80822 25.0894 11.9171V17.8447L27.6781 24.8096H4L6.58869 17.8447V11.9171ZM15.8391 4.66669C11.8348 4.66669 8.58869 7.91279 8.58869 11.9171V18.2043L6.87702 22.8096H24.8011L23.0894 18.2043V11.9171C23.0894 7.91279 19.8433 4.66669 15.8391 4.66669Z" fill="#444444"/>
<path fill-rule="evenodd" clip-rule="evenodd" d="M10.6172 24.1114V23.8101H12.6172V24.1114C12.6172 25.891 14.0598 27.3336 15.8394 27.3336C17.619 27.3336 19.0616 25.891 19.0616 24.1114V23.8101H21.0616V24.1114C21.0616 26.9956 18.7236 29.3337 15.8394 29.3337C12.9553 29.3337 10.6172 26.9956 10.6172 24.1114Z" fill="#444444"/>
</svg>
