<svg width="26" height="26" viewBox="0 0 26 26" fill="none" xmlns="http://www.w3.org/2000/svg">
<path fill-rule="evenodd" clip-rule="evenodd" d="M17.3079 8.65927L15.7553 15.7547L9.95392 17.0242L8.69287 17.341L10.2456 10.2451L16.0471 8.97558L17.3079 8.65927ZM10.8317 15.1687L14.3905 14.3899L15.1692 10.8311L11.6104 11.6099L10.8317 15.1687Z" fill="#CCCCCC"/>
<path fill-rule="evenodd" clip-rule="evenodd" d="M12.9998 3.79166C7.91421 3.79166 3.7915 7.91437 3.7915 13C3.7915 18.0856 7.91421 22.2083 12.9998 22.2083C18.0855 22.2083 22.2082 18.0856 22.2082 13C22.2082 7.91437 18.0855 3.79166 12.9998 3.79166ZM2.1665 13C2.1665 7.0169 7.01675 2.16666 12.9998 2.16666C18.9829 2.16666 23.8332 7.0169 23.8332 13C23.8332 18.9831 18.9829 23.8333 12.9998 23.8333C7.01675 23.8333 2.1665 18.9831 2.1665 13Z" fill="#CCCCCC"/>
</svg>
