<svg width="26" height="26" viewBox="0 0 26 26" fill="none" xmlns="http://www.w3.org/2000/svg">
<path fill-rule="evenodd" clip-rule="evenodd" d="M17.3084 8.65918L15.7558 15.7546L9.9544 17.0241L8.69336 17.3409L10.2461 10.245L16.0476 8.97548L17.3084 8.65918ZM10.8322 15.1686L14.391 14.3898L15.1697 10.831L11.6109 11.6098L10.8322 15.1686Z" fill="#00A8E0"/>
<path fill-rule="evenodd" clip-rule="evenodd" d="M12.9993 3.79102C7.91373 3.79102 3.79102 7.91373 3.79102 12.9993C3.79102 18.085 7.91373 22.2077 12.9993 22.2077C18.085 22.2077 22.2077 18.085 22.2077 12.9993C22.2077 7.91373 18.085 3.79102 12.9993 3.79102ZM2.16602 12.9993C2.16602 7.01626 7.01626 2.16602 12.9993 2.16602C18.9824 2.16602 23.8327 7.01626 23.8327 12.9993C23.8327 18.9824 18.9824 23.8327 12.9993 23.8327C7.01626 23.8327 2.16602 18.9824 2.16602 12.9993Z" fill="#00A8E0"/>
</svg>
