<svg width="32" height="32" viewBox="0 0 32 32" fill="none" xmlns="http://www.w3.org/2000/svg">
<path fill-rule="evenodd" clip-rule="evenodd" d="M15.9597 12.2881C13.7965 12.2881 12.043 14.0417 12.043 16.2048C12.043 18.368 13.7965 20.1215 15.9597 20.1215C18.1228 20.1215 19.8764 18.368 19.8764 16.2048C19.8764 14.0417 18.1228 12.2881 15.9597 12.2881ZM10.043 16.2048C10.043 12.9371 12.692 10.2881 15.9597 10.2881C19.2274 10.2881 21.8764 12.9371 21.8764 16.2048C21.8764 19.4725 19.2274 22.1215 15.9597 22.1215C12.692 22.1215 10.043 19.4725 10.043 16.2048Z" fill="#444444"/>
<path fill-rule="evenodd" clip-rule="evenodd" d="M12.8261 2.66699L15.9592 5.13215L19.0923 2.66699L26.1178 6.72322L25.5495 10.6689L29.2486 12.1487V20.2612L25.5482 21.7415L26.1164 25.6865L19.0908 29.7427L15.9592 27.2787L12.8275 29.7427L5.80195 25.6865L6.37006 21.7422L2.66797 20.2612V12.1487L6.36873 10.6683L5.80051 6.72322L12.8261 2.66699ZM7.97311 7.77826L8.57264 11.9407L4.66797 13.5027V18.9072L8.57398 20.4698L7.97456 24.6314L12.6549 27.3337L15.9592 24.7338L19.2634 27.3337L23.9438 24.6314L23.3443 20.4691L27.2486 18.9072V13.5027L23.3456 11.9414L23.9452 7.77826L19.2649 5.07605L15.9592 7.67701L12.6535 5.07605L7.97311 7.77826Z" fill="#444444"/>
</svg>
