<svg width="32" height="32" viewBox="0 0 32 32" fill="none" xmlns="http://www.w3.org/2000/svg">
<path fill-rule="evenodd" clip-rule="evenodd" d="M16 0L16.9862 2.66529C19.1032 8.38622 23.6138 12.8968 29.3347 15.0138L32 16L29.3347 16.9862C23.6138 19.1032 19.1032 23.6138 16.9862 29.3347L16 32L15.0138 29.3347C12.8968 23.6138 8.38622 19.1032 2.66529 16.9862L0 16L2.66529 15.0138C8.38622 12.8968 12.8968 8.38622 15.0138 2.66529L16 0ZM5.67451 16C10.1453 18.2283 13.7717 21.8547 16 26.3255C18.2283 21.8547 21.8547 18.2283 26.3255 16C21.8547 13.7717 18.2283 10.1453 16 5.67451C13.7717 10.1453 10.1453 13.7717 5.67451 16Z" fill="black"/>
</svg>
