<svg width="32" height="32" viewBox="0 0 32 32" fill="none" xmlns="http://www.w3.org/2000/svg">
<path fill-rule="evenodd" clip-rule="evenodd" d="M25.5001 0.166672H6.50008C3.00228 0.166672 0.166748 3.0022 0.166748 6.5V25.5C0.166748 28.4517 2.186 30.9318 4.9185 31.6343C5.42404 31.7642 5.95399 31.8333 6.50008 31.8333H25.5001C26.0462 31.8333 26.5761 31.7642 27.0817 31.6343C29.8142 30.9318 31.8334 28.4517 31.8334 25.5V6.50001C31.8334 3.0022 28.9979 0.166672 25.5001 0.166672ZM20.7501 11.25C20.7501 8.62665 18.6234 6.5 16.0001 6.5C13.3767 6.5 11.2501 8.62665 11.2501 11.25C11.2501 13.8734 13.3767 16 16.0001 16C18.6234 16 20.7501 13.8734 20.7501 11.25ZM8.32499 23.9412C9.1931 21.1972 12.3002 19.1667 16.0001 19.1667C19.7 19.1667 22.8071 21.1972 23.6752 23.9412C23.9389 24.775 23.2079 25.5 22.3334 25.5H9.66675C8.7923 25.5 8.06123 24.775 8.32499 23.9412Z" fill="#28303F"/>
</svg>
