<svg width="24" height="24" viewBox="0 0 24 24" fill="none" xmlns="http://www.w3.org/2000/svg">
<path fill-rule="evenodd" clip-rule="evenodd" d="M2 3.84961H22V10.7612H21.25C20.5406 10.7612 19.9866 11.3218 19.9866 12.0006C19.9866 12.6789 20.5401 13.2389 21.25 13.2389H22V20.1496H2V13.2389H2.75C3.45991 13.2389 4.01343 12.6789 4.01343 12.0006C4.01343 11.3604 3.49966 10.8393 2.75 10.8393H2V3.84961ZM3.5 5.34961V9.43598C4.63872 9.73613 5.51343 10.7101 5.51343 12.0006C5.51343 13.2646 4.65887 14.3152 3.5 14.6372V18.6496H20.5V14.6372C19.3411 14.3152 18.4866 13.2646 18.4866 12.0006C18.4866 10.7368 19.3409 9.68528 20.5 9.36302V5.34961H3.5Z" fill="#666666"/>
<path fill-rule="evenodd" clip-rule="evenodd" d="M11.999 7.06641L13.4738 9.86161L16.5879 10.4004L14.3853 12.6668L14.8351 15.795L11.999 14.4005L9.16296 15.795L9.61282 12.6668L7.41016 10.4004L10.5243 9.86161L11.999 7.06641ZM11.999 10.2809L11.5068 11.2139L10.4673 11.3938L11.2025 12.1503L11.0524 13.1944L11.999 12.7289L12.9457 13.1944L12.7956 12.1503L13.5308 11.3938L12.4913 11.2139L11.999 10.2809Z" fill="#666666"/>
</svg>
