<svg width="26" height="26" viewBox="0 0 26 26" fill="none" xmlns="http://www.w3.org/2000/svg">
<path fill-rule="evenodd" clip-rule="evenodd" d="M19.0192 11.9471L24.2454 11.9471V13.5721H19.0194M19.0194 13.5721C17.7732 13.573 16.8966 14.475 16.8965 15.4305C16.8973 16.3871 17.7738 17.2888 19.0196 17.2895H24.2454V18.9145H19.0192C17.024 18.9134 15.2728 17.4254 15.2715 15.4313C15.2715 13.4364 17.0245 11.9482 19.0192 11.9471" fill="#CCCCCC"/>
<path fill-rule="evenodd" clip-rule="evenodd" d="M1.75391 5.39062H24.2453V23.8333H1.75391V5.39062ZM3.37891 7.01562V22.2083H22.6203V7.01562H3.37891Z" fill="#CCCCCC"/>
<path fill-rule="evenodd" clip-rule="evenodd" d="M1.75391 2.16663L21.3939 2.1675V6.90949H19.7689V3.79242L3.37891 3.7917V23.8328H1.75391V2.16663Z" fill="#CCCCCC"/>
<path fill-rule="evenodd" clip-rule="evenodd" d="M6.69873 10.3391H14.2101V11.9641H6.69873V10.3391Z" fill="#CCCCCC"/>
</svg>
