<svg width="26" height="26" viewBox="0 0 26 26" fill="none" xmlns="http://www.w3.org/2000/svg">
<path fill-rule="evenodd" clip-rule="evenodd" d="M13.8125 15.1011V19.4745H12.1875V15.1011H13.8125Z" fill="#CCCCCC"/>
<path fill-rule="evenodd" clip-rule="evenodd" d="M2.17188 5.55737H23.8277V13.8774L23.4257 14.1127C20.6214 15.7543 16.9555 16.7265 12.9944 16.7265C9.03275 16.7265 5.37783 15.7541 2.57392 14.1127L2.17188 13.8774V5.55737ZM3.79688 7.18237V12.937C6.27289 14.2817 9.47942 15.1015 12.9944 15.1015C16.5098 15.1015 19.726 14.2815 22.2027 12.937V7.18237H3.79688Z" fill="#CCCCCC"/>
<path fill-rule="evenodd" clip-rule="evenodd" d="M9.75818 2.76229H16.2424L17.8601 6.50186L16.3687 7.14705L15.1748 4.38729H10.8257L9.63151 7.14709L8.14014 6.50178L9.75818 2.76229Z" fill="#CCCCCC"/>
<path fill-rule="evenodd" clip-rule="evenodd" d="M3.79494 15.6194L4.00063 21.6127H21.9987L22.2044 15.6194L23.8284 15.6751L23.5689 23.2377H2.43045L2.1709 15.6751L3.79494 15.6194Z" fill="#CCCCCC"/>
</svg>
